<svg width="164" height="60" viewBox="0 0 164 60" fill="none" xmlns="http://www.w3.org/2000/svg">
<g clip-path="url(#clip0_1_278)">
<path d="M59.6836 38.1154L62.1529 34.5163C63.3075 35.5641 64.6425 36.3938 66.0931 36.9653C67.5705 37.554 69.1471 37.8536 70.7375 37.8478C71.8339 37.8478 72.7551 37.6976 73.501 37.3972C74.2469 37.0967 74.8087 36.7045 75.1863 36.2204C75.5523 35.7724 75.7529 35.2121 75.7543 34.6337C75.7501 34.0469 75.5732 33.4744 75.2458 32.9875C74.9046 32.4659 74.297 31.9563 73.4227 31.4586C72.5485 30.961 71.3139 30.4514 69.7188 29.9298C67.5281 29.1724 65.7901 28.3822 64.5048 27.5591C63.2196 26.736 62.2984 25.8279 61.7413 24.8348C61.1833 23.8559 60.893 22.7473 60.8995 21.6206C60.8883 20.2712 61.2919 18.9509 62.0559 17.8384C62.8258 16.7013 63.9295 15.7864 65.367 15.0937C66.8046 14.401 68.5035 14.0547 70.4637 14.0547C72.148 14.0661 73.8181 14.3646 75.4022 14.9372C76.9773 15.4728 78.4487 16.2747 79.7524 17.308L77.3614 20.9149C76.3748 20.0274 75.2432 19.3161 74.0158 18.8117C72.775 18.3012 71.4455 18.0411 70.1037 18.0466C68.5619 18.0466 67.4143 18.3595 66.6611 18.9854C65.9079 19.6114 65.5292 20.3416 65.5251 21.1762C65.5269 21.7058 65.6985 22.2208 66.0149 22.6456C66.3403 23.1046 66.9214 23.5558 67.7581 23.9991C68.8702 24.5569 70.0238 25.0277 71.2085 25.4075C73.5036 26.1377 75.3323 26.9546 76.6948 27.858C78.0572 28.7614 79.042 29.7373 79.6492 30.7858C80.2601 31.8177 80.5787 32.9964 80.5709 34.1955C80.5738 35.5713 80.1645 36.9165 79.3957 38.0575C78.6112 39.2468 77.461 40.194 75.9452 40.8992C74.4294 41.6044 72.548 41.957 70.3009 41.957C69.007 41.9542 67.7186 41.7896 66.4655 41.4673C65.2 41.1459 63.9717 40.6928 62.8007 40.1152C61.6873 39.5723 60.6412 38.9012 59.6836 38.1154Z" fill="white"/>
<path d="M85.3184 21.1823H89.5074L90.2898 25.0943V48.5667L85.9083 49.3491V26.0332C85.9083 25.4834 85.8885 24.9806 85.8488 24.5247C85.8092 24.0688 85.7372 23.5525 85.6329 22.9756L85.3184 21.1823ZM88.5685 32.8246L90.2898 32.5116C90.2898 33.8448 90.4922 34.9402 90.897 35.7977C91.3017 36.6552 91.8233 37.2958 92.4618 37.7193C93.0831 38.1315 93.8131 38.3494 94.5586 38.3452C96.0484 38.3452 97.2439 37.7193 98.1452 36.4675C99.0466 35.2156 99.5004 33.5438 99.5066 31.4522C99.5066 29.9917 99.3173 28.7701 98.9386 27.7874C98.5599 26.8047 98.031 26.0666 97.3519 25.5732C96.6823 25.0803 95.8704 24.8188 95.039 24.8283C94.054 24.8326 93.0875 25.096 92.2364 25.5919C91.2821 26.1477 90.4274 26.859 89.7077 27.6966V24.5138C90.5195 23.4382 91.5285 22.5269 92.6809 21.8285C93.7896 21.1483 95.0653 20.7892 96.366 20.7911C97.7403 20.7857 99.0782 21.2327 100.173 22.0633C101.321 22.9135 102.242 24.1132 102.937 25.6624C103.631 27.2115 103.978 29.0737 103.976 31.2488C103.976 33.4959 103.616 35.4164 102.898 37.0105C102.179 38.6045 101.188 39.8261 99.9244 40.6753C98.6569 41.5234 97.1875 41.948 95.5163 41.949C94.3133 41.9491 93.1358 41.6019 92.1253 40.9491C91.0675 40.2825 90.2116 39.2763 89.5575 37.9306C88.9034 36.5848 88.5737 34.8828 88.5685 32.8246Z" fill="white"/>
<path d="M107.894 36.2743C107.881 35.0908 108.223 33.9304 108.875 32.9428C109.525 31.9497 110.571 31.1402 112.011 30.5142C113.452 29.8883 115.333 29.5352 117.656 29.4549L120.516 29.3766V32.1933L117.89 32.392C116.375 32.4963 115.205 32.7248 114.382 33.0774C113.559 33.43 112.985 33.8416 112.661 34.3121C112.342 34.7581 112.171 35.2927 112.171 35.8409C112.171 36.5998 112.406 37.1929 112.877 37.6248C113.348 38.0567 113.96 38.2711 114.718 38.2711C115.783 38.266 116.828 37.9898 117.756 37.4683C118.77 36.9045 119.679 36.1685 120.441 35.2932V38.2664C119.684 39.3352 118.709 40.2308 117.579 40.8937C116.397 41.5996 115.043 41.9656 113.667 41.9515C112.675 41.9581 111.698 41.7154 110.825 41.2458C109.956 40.7879 109.222 40.1089 108.699 39.2772C108.147 38.3744 107.868 37.3318 107.894 36.2743ZM108.52 22.7512C109.604 22.1432 110.761 21.6758 111.963 21.36C113.276 20.9876 114.635 20.7965 116 20.792C117.593 20.792 119.01 21.0857 120.252 21.673C121.473 22.2424 122.491 23.1703 123.172 24.3332C123.888 25.5266 124.247 27.0132 124.247 28.7929V36.7094C124.247 37.2581 124.266 37.7547 124.305 38.1991C124.343 38.6435 124.415 39.1531 124.521 39.7279L124.833 41.5306H120.64L119.857 37.6107V29.1794C119.857 27.6376 119.479 26.514 118.721 25.8088C117.964 25.1036 116.879 24.751 115.468 24.751C114.469 24.7435 113.475 24.9021 112.528 25.2204C111.624 25.5298 110.746 25.9102 109.902 26.3581L108.52 22.7512Z" fill="white"/>
<path d="M130.119 21.1827H134.313L135.095 25.1808V41.5254H130.706V26.0431C130.706 25.4933 130.687 24.9905 130.648 24.5346C130.61 24.0787 130.538 23.5623 130.432 22.9854L130.119 21.1827ZM134.509 28.2776V25.1808C135.209 23.8838 136.219 22.7798 137.449 21.9667C138.649 21.1836 140.054 20.7746 141.486 20.7915V25.3295C139.921 25.3827 138.576 25.6435 137.449 26.1119C136.313 26.5935 135.306 27.3354 134.509 28.2776Z" fill="white"/>
<path d="M144.347 31.4526C144.347 29.2055 144.706 27.2849 145.425 25.6909C146.144 24.0968 147.135 22.8815 148.398 22.0448C149.666 21.2103 151.135 20.793 152.808 20.793C154.007 20.79 155.183 21.1217 156.203 21.7507C157.261 22.3922 158.117 23.3833 158.771 24.7238C159.425 26.0644 159.752 27.7825 159.751 29.8783L157.987 30.2304C157.987 28.845 157.791 27.7283 157.399 26.8801C157.007 26.032 156.492 25.4003 155.856 24.9851C155.234 24.5735 154.505 24.3557 153.759 24.3592C152.269 24.3592 151.074 24.9851 150.173 26.237C149.271 27.4889 148.818 29.1622 148.814 31.257C148.814 32.6935 149.004 33.9083 149.384 34.9014C149.764 35.8946 150.293 36.6457 150.971 37.1548C151.635 37.6597 152.449 37.929 153.283 37.92C154.252 37.9053 155.202 37.6493 156.047 37.1751C157.005 36.6547 157.861 35.9655 158.574 35.1409V38.2376C157.77 39.3075 156.773 40.2181 155.635 40.9229C154.527 41.6095 153.247 41.9682 151.944 41.9572C150.574 41.9599 149.241 41.5129 148.149 40.685C147.002 39.8348 146.081 38.6262 145.386 37.0593C144.691 35.4924 144.345 33.6235 144.347 31.4526ZM157.987 49.3651V25.1025L158.81 21.1905H163.004L162.691 22.9931C162.587 23.569 162.515 24.0854 162.475 24.5423C162.436 24.9992 162.416 25.5021 162.416 26.0508V48.5842L157.987 49.3651Z" fill="white"/>
<path d="M37.9732 36.3678C37.592 36.3686 37.2193 36.2558 36.9026 36.0437C36.5858 35.8317 36.3395 35.53 36.1951 35.1773C36.0506 34.8246 36.0146 34.4368 36.0916 34.0635C36.1686 33.6902 36.3552 33.3484 36.6274 33.0816L39.1593 30.5779C39.4236 30.2278 39.5889 29.813 39.6378 29.377C39.6868 28.941 39.6175 28.4999 39.4373 28.0999C39.2572 27.6998 38.9727 27.3556 38.6138 27.1033C38.2549 26.8511 37.8347 26.6999 37.3973 26.6659L12.2819 24.702C11.5377 24.6435 10.8256 24.3742 10.229 23.9255C9.63244 23.4769 9.17605 22.8675 8.91331 22.1688C8.65058 21.4701 8.59239 20.711 8.74557 19.9804C8.89875 19.2498 9.25694 18.578 9.7782 18.0437L26.6298 0.761775C27.0133 0.367561 27.5159 0.110591 28.06 0.0305595C28.6042 -0.0494717 29.1595 0.0518889 29.6403 0.318984C30.1211 0.58608 30.5005 1.00405 30.72 1.50832C30.9395 2.0126 30.9869 2.57513 30.8548 3.10901L27.215 17.9748C27.094 18.4687 26.7818 18.8943 26.3471 19.158C25.9123 19.4216 25.3906 19.5018 24.8967 19.3808C24.4029 19.2598 23.9773 18.9476 23.7136 18.5129C23.4499 18.0781 23.3698 17.5564 23.4907 17.0625L25.9694 6.94282L12.5182 20.7195C12.5028 20.7306 12.4921 20.747 12.4884 20.7656C12.4846 20.7842 12.488 20.8035 12.4979 20.8197C12.5198 20.876 12.5432 20.8776 12.5792 20.8807L37.6946 22.8555C38.8367 22.9449 39.9325 23.345 40.8635 24.0125C41.7945 24.6799 42.5251 25.5893 42.9764 26.6422C43.4277 27.6951 43.5823 28.8514 43.4237 29.9859C43.265 31.1204 42.799 32.1898 42.0761 33.0785L41.9353 33.235L39.3174 35.8169C38.959 36.1699 38.4762 36.3678 37.9732 36.3678Z" fill="url(#paint0_linear_1_278)"/>
<path d="M15.0751 59.9992C14.6476 59.9983 14.2274 59.8878 13.8546 59.6784C13.3715 59.4157 12.9898 58.9996 12.7696 58.4958C12.5494 57.9919 12.5034 57.4291 12.6387 56.8962L16.2785 42.0304C16.3337 41.7811 16.4382 41.5454 16.5858 41.337C16.7334 41.1287 16.9211 40.9519 17.1379 40.8171C17.3548 40.6823 17.5963 40.5922 17.8485 40.5521C18.1006 40.5119 18.3583 40.5225 18.6062 40.5833C18.8542 40.6441 19.0876 40.7538 19.2926 40.9059C19.4976 41.0581 19.6701 41.2497 19.8001 41.4695C19.93 41.6893 20.0147 41.9328 20.0493 42.1858C20.0838 42.4388 20.0675 42.6961 20.0012 42.9427L17.5256 53.0655L30.9659 39.2763C30.9814 39.2658 30.9924 39.2497 30.9964 39.2313C31.0005 39.213 30.9974 39.1938 30.9878 39.1777C30.9659 39.1214 30.9424 39.1198 30.9064 39.1167L5.78947 37.1434C4.64631 37.0548 3.54924 36.6549 2.61722 35.9871C1.6852 35.3193 0.953803 34.409 0.502357 33.3551C0.0509112 32.3011 -0.103356 31.1437 0.0562857 30.0082C0.215927 28.8728 0.683384 27.8028 1.40796 26.9142L1.5488 26.7577L4.16674 24.1757C4.34655 23.9988 4.55945 23.859 4.79328 23.7644C5.02711 23.6697 5.27729 23.6221 5.52955 23.6241C5.7818 23.6261 6.03118 23.6778 6.26346 23.7762C6.49573 23.8746 6.70635 24.0178 6.88328 24.1977C7.06021 24.3775 7.19999 24.5904 7.29464 24.8242C7.3893 25.058 7.43697 25.3082 7.43494 25.5605C7.4329 25.8127 7.3812 26.0621 7.28279 26.2944C7.18438 26.5266 7.04118 26.7373 6.86137 26.9142L4.32792 29.4179C4.06412 29.7682 3.89928 30.1829 3.85064 30.6187C3.802 31.0546 3.87135 31.4954 4.05143 31.8953C4.23152 32.2951 4.51572 32.6392 4.87433 32.8916C5.23293 33.144 5.65276 33.2954 6.08991 33.33L31.2069 35.3048C31.9511 35.3633 32.6632 35.6326 33.2598 36.0813C33.8564 36.5299 34.3128 37.1393 34.5755 37.838C34.8382 38.5367 34.8964 39.2958 34.7432 40.0264C34.59 40.7569 34.2319 41.4288 33.7106 41.9631L16.859 59.2372C16.628 59.4773 16.351 59.6685 16.0445 59.7995C15.738 59.9304 15.4084 59.9983 15.0751 59.9992Z" fill="url(#paint1_linear_1_278)"/>
</g>
<defs>
<linearGradient id="paint0_linear_1_278" x1="14.3756" y1="45.1542" x2="35.4522" y2="9.32605" gradientUnits="userSpaceOnUse">
<stop stop-color="#1FADE0"/>
<stop offset="1" stop-color="#00F193"/>
</linearGradient>
<linearGradient id="paint1_linear_1_278" x1="12.0785" y1="43.8018" x2="33.1535" y2="7.97357" gradientUnits="userSpaceOnUse">
<stop stop-color="#1FADE0"/>
<stop offset="1" stop-color="#00F193"/>
</linearGradient>
<clipPath id="clip0_1_278">
<rect width="163.004" height="60" fill="white"/>
</clipPath>
</defs>
</svg>
